<svg xmlns="http://www.w3.org/2000/svg" viewBox="0 0 64 64" width="64" height="64" fill="none">
  <defs>
    <mask id="cutout">
      <rect width="64" height="64" fill="white" />
      <g transform="translate(12 12.5) scale(1.32)" fill="black">
        <path d="M14.7916 37.4624C8.50107 37.4624 3.93384 33.822 3.93384 29.2657C3.93384 24.7095 7.23375 21.0159 14.7916 20.9627C22.3495 20.9095 25.756 24.7095 25.756 29.2657C25.756 33.822 20.7097 37.4624 14.7916 37.4624Z" />
        <path d="M15.1897 21.1755L17.5316 5.31461C17.5316 5.31461 18.4364 0.790498 22.3218 0.843728C26.2072 0.896957 29.0281 6.80488 29.1346 11.5951C29.0584 17.7478 25.675 15.6796 23.8121 12.6596C23.8121 12.2871 19.2347 21.6013 19.2347 21.6013L15.1897 21.1755Z" />
        <path d="M14.5505 21.1755L12.2086 5.31461C12.2086 5.31461 11.3038 0.790498 7.41846 0.843728C3.53302 0.896957 0.712093 6.80488 0.605713 11.5951C0.681833 17.7478 4.06532 15.6796 5.92811 12.6596C5.92811 12.2871 10.5055 21.6013 10.5055 21.6013L14.5505 21.1755Z" />
      </g>
    </mask>
  </defs>
  <circle cx="32" cy="32" r="30" fill="#D08A1E" mask="url(#cutout)" />
</svg>
